<?xml version="1.0" encoding="UTF-8"?>
<svg id="Layer_2" xmlns="http://www.w3.org/2000/svg" viewBox="0 0 540 556">
  <defs>
    <style>
      .cls-1 {
        fill: none;
        stroke: #fff;
        stroke-miterlimit: 10;
        stroke-width: 28px;
      }

      .cls-2 {
        fill: #fff;
      }
    </style>
  </defs>
  <g id="Layer_1-2" data-name="Layer_1">
    <g>
      <g>
        <path class="cls-2" d="M8.5,547.5V23.56c29.4-3.33,141.51-15.06,261.5-15.06s232.1,11.73,261.5,15.06v523.94H8.5Z"/>
        <path d="M270,17c110.99,0,215.25,10.08,253,14.17v507.83H17V31.17c37.74-4.09,141.94-14.17,253-14.17M270,0C128.68,0,0,16,0,16v540h540V16S411.32,0,270,0h0Z"/>
      </g>
      <path d="M408.2,411l9.03,15.24c2.63,4.7,5.08,9.41,7.53,13.73h.38c2.45-4.89,4.7-9.59,7.15-14.11l8.09-14.86h31.04l-30.29,43.84,30.67,48.16h-32.36l-9.22-16.56c-2.63-4.52-4.89-9.22-7.15-13.92h-.56c-2.26,4.89-4.71,9.41-6.96,13.92l-8.65,16.56h-31.42l31.23-46.85-30.48-45.15h31.98Z"/>
      <g>
        <path d="M69.79,80.89c29.83-5.08,71.73-8.89,130.76-8.89s102.19,11.42,130.76,34.28c27.29,21.58,45.7,57.13,45.7,99.02s-13.97,77.45-39.36,101.56c-33.01,31.1-81.88,45.07-139.01,45.07-12.7,0-24.12-.63-33.01-1.9v152.98h-95.85V80.89ZM165.64,275.12c8.25,1.9,18.41,2.54,32.38,2.54,51.41,0,83.15-26.02,83.15-69.82,0-39.36-27.3-62.85-75.54-62.85-19.68,0-33.01,1.91-39.99,3.81v126.32Z"/>
        <line class="cls-1" x1="223.83" y1="400.39" x2="48" y2="400.39"/>
        <path class="cls-2" d="M215.43,141.77c-1.93,0-160.2.26-160.2.26v138.21s158.5-.26,160.2-.26c37.59,0,68.06-30.94,68.06-69.1s-30.47-69.1-68.06-69.1Z"/>
      </g>
    </g>
  </g>
</svg>